<?xml version="1.0" standalone="no"?>
<!DOCTYPE svg PUBLIC "-//W3C//DTD SVG 20010904//EN"
 "http://www.w3.org/TR/2001/REC-SVG-20010904/DTD/svg10.dtd">
<svg version="1.0" xmlns="http://www.w3.org/2000/svg"
 width="512.000000pt" height="512.000000pt" viewBox="0 0 512.000000 512.000000"
 preserveAspectRatio="xMidYMid meet">

<g transform="translate(0.000000,512.000000) scale(0.100000,-0.100000)"
fill="#000000" stroke="none">
<path d="M2380 4794 c-338 -40 -547 -98 -805 -224 -583 -286 -1027 -831 -1185
-1457 -51 -201 -64 -316 -64 -553 0 -237 13 -350 64 -552 159 -629 600 -1172
1185 -1458 329 -161 610 -225 985 -224 237 0 352 13 553 64 784 198 1419 833
1617 1617 51 201 64 316 64 553 1 236 -12 342 -65 554 -156 623 -599 1168
-1180 1453 -314 154 -593 221 -944 228 -104 2 -206 1 -225 -1z m275 -1006 c18
-12 43 -37 56 -56 l24 -36 5 -577 5 -578 135 124 c74 68 150 132 169 141 145
70 300 -80 237 -230 -17 -41 -598 -573 -654 -598 -46 -22 -104 -23 -146 -3
-44 21 -632 558 -651 595 -19 37 -19 123 0 159 21 41 69 79 117 92 77 20 112
2 276 -147 l147 -133 5 577 5 577 23 36 c53 86 168 112 247 57z m-969 -1830
c41 -28 68 -82 83 -162 11 -62 35 -97 83 -122 22 -12 143 -14 714 -14 680 0
687 0 721 21 42 26 63 65 73 141 10 72 45 122 104 149 50 23 85 24 134 4 79
-34 112 -86 112 -178 0 -129 -57 -253 -160 -351 -76 -71 -150 -111 -248 -132
-98 -20 -1386 -20 -1484 0 -105 23 -175 61 -254 140 -150 150 -200 374 -106
480 52 58 161 69 228 24z"/>
</g>
</svg>
