<?xml version="1.0" encoding="UTF-8"?>
<svg xmlns="http://www.w3.org/2000/svg" xmlns:xlink="http://www.w3.org/1999/xlink" width="37.5pt" height="37.499999pt" viewBox="0 0 37.5 37.499999" version="1.2">
<defs>
<clipPath id="clip1">
  <path d="M 0 4.570312 L 37.007812 4.570312 L 37.007812 33.070312 L 0 33.070312 Z M 0 4.570312 "/>
</clipPath>
</defs>
<g id="surface1">
<g clip-path="url(#clip1)" clip-rule="nonzero">
<path style=" stroke:none;fill-rule:nonzero;fill:rgb(0%,0%,0%);fill-opacity:1;" d="M 3.558594 4.570312 C 1.605469 4.570312 0.0117188 6.179688 0.0117188 8.152344 L 0.0117188 29.632812 C 0.0117188 31.601562 1.605469 33.210938 3.558594 33.210938 L 33.941406 33.210938 C 35.894531 33.210938 37.488281 31.601562 37.488281 29.632812 L 37.488281 8.152344 C 37.488281 6.179688 35.894531 4.570312 33.941406 4.570312 Z M 3.558594 5.59375 L 33.941406 5.59375 C 35.34375 5.59375 36.46875 6.726562 36.472656 8.140625 C 36.472656 8.871094 36.125 9.554688 35.542969 9.988281 L 18.75 22.410156 L 1.957031 9.988281 C 1.375 9.554688 1.027344 8.871094 1.027344 8.140625 C 1.027344 7.132812 1.605469 6.28125 2.4375 5.863281 L 18.601562 17.820312 C 18.699219 17.890625 18.800781 17.890625 18.898438 17.820312 L 27.195312 11.683594 C 27.253906 11.640625 27.285156 11.585938 27.296875 11.515625 C 27.308594 11.445312 27.292969 11.382812 27.25 11.324219 C 27.210938 11.265625 27.15625 11.234375 27.085938 11.222656 C 27.015625 11.210938 26.953125 11.226562 26.898438 11.269531 L 18.75 17.296875 L 3.011719 5.65625 C 3.1875 5.617188 3.371094 5.59375 3.558594 5.59375 Z M 32.179688 7.429688 C 32.121094 7.425781 32.066406 7.445312 32.019531 7.480469 L 31.007812 8.226562 C 30.949219 8.269531 30.910156 8.324219 30.898438 8.394531 C 30.886719 8.46875 30.902344 8.53125 30.945312 8.589844 C 30.988281 8.648438 31.042969 8.683594 31.113281 8.695312 C 31.1875 8.703125 31.25 8.6875 31.304688 8.640625 L 32.320312 7.894531 C 32.417969 7.820312 32.449219 7.726562 32.414062 7.609375 C 32.378906 7.492188 32.300781 7.429688 32.179688 7.429688 Z M 30.152344 8.925781 C 30.144531 8.925781 30.136719 8.925781 30.128906 8.925781 C 30.078125 8.929688 30.035156 8.949219 29.996094 8.976562 L 27.96875 10.476562 C 27.910156 10.515625 27.875 10.574219 27.859375 10.644531 C 27.847656 10.714844 27.863281 10.78125 27.90625 10.839844 C 27.949219 10.898438 28.003906 10.933594 28.078125 10.941406 C 28.148438 10.953125 28.210938 10.933594 28.269531 10.886719 L 30.292969 9.390625 C 30.394531 9.320312 30.425781 9.222656 30.390625 9.105469 C 30.355469 8.988281 30.273438 8.929688 30.152344 8.925781 Z M 1.027344 9.742188 C 1.199219 9.992188 1.410156 10.214844 1.660156 10.402344 L 18.601562 22.933594 C 18.699219 23.007812 18.800781 23.007812 18.898438 22.933594 L 35.839844 10.402344 C 36.089844 10.214844 36.300781 9.992188 36.472656 9.742188 L 36.472656 29.632812 C 36.472656 31.050781 35.347656 32.1875 33.941406 32.1875 L 3.558594 32.1875 C 2.152344 32.1875 1.027344 31.050781 1.027344 29.632812 Z M 4.820312 13.773438 C 4.75 13.773438 4.691406 13.800781 4.640625 13.851562 C 4.59375 13.902344 4.570312 13.960938 4.570312 14.03125 L 4.570312 30.910156 C 4.570312 30.980469 4.59375 31.042969 4.644531 31.09375 C 4.691406 31.144531 4.753906 31.167969 4.824219 31.167969 C 4.894531 31.167969 4.953125 31.144531 5.003906 31.09375 C 5.054688 31.042969 5.078125 30.980469 5.078125 30.910156 L 5.078125 14.03125 C 5.078125 13.960938 5.054688 13.898438 5.003906 13.847656 C 4.953125 13.796875 4.890625 13.769531 4.820312 13.773438 Z M 32.671875 13.773438 C 32.601562 13.773438 32.542969 13.800781 32.496094 13.851562 C 32.445312 13.902344 32.421875 13.960938 32.421875 14.03125 L 32.421875 24.773438 C 32.421875 24.84375 32.445312 24.90625 32.496094 24.957031 C 32.546875 25.007812 32.605469 25.03125 32.675781 25.03125 C 32.746094 25.03125 32.808594 25.007812 32.855469 24.957031 C 32.90625 24.90625 32.929688 24.84375 32.929688 24.773438 L 32.929688 14.03125 C 32.929688 13.960938 32.90625 13.898438 32.855469 13.847656 C 32.804688 13.796875 32.742188 13.769531 32.671875 13.773438 Z M 32.671875 26.046875 C 32.601562 26.046875 32.542969 26.074219 32.496094 26.125 C 32.445312 26.175781 32.421875 26.238281 32.421875 26.308594 L 32.421875 28.863281 C 32.421875 28.9375 32.445312 28.996094 32.496094 29.046875 C 32.546875 29.097656 32.605469 29.125 32.675781 29.125 C 32.746094 29.125 32.808594 29.097656 32.855469 29.046875 C 32.90625 28.996094 32.929688 28.9375 32.929688 28.863281 L 32.929688 26.308594 C 32.929688 26.234375 32.90625 26.171875 32.855469 26.121094 C 32.804688 26.070312 32.742188 26.046875 32.671875 26.046875 Z M 32.671875 30.140625 C 32.601562 30.140625 32.542969 30.164062 32.496094 30.214844 C 32.445312 30.265625 32.421875 30.328125 32.421875 30.398438 L 32.421875 30.910156 C 32.421875 30.980469 32.445312 31.042969 32.496094 31.09375 C 32.546875 31.144531 32.605469 31.167969 32.675781 31.167969 C 32.746094 31.167969 32.808594 31.144531 32.855469 31.09375 C 32.90625 31.042969 32.929688 30.980469 32.929688 30.910156 L 32.929688 30.398438 C 32.929688 30.328125 32.90625 30.265625 32.855469 30.214844 C 32.804688 30.164062 32.742188 30.136719 32.671875 30.140625 Z M 32.671875 30.140625 "/>
</g>
</g>
</svg>
