<?xml version="1.0" encoding="UTF-8"?>
<svg xmlns="http://www.w3.org/2000/svg" xmlns:xlink="http://www.w3.org/1999/xlink" width="37.5pt" height="37.499999pt" viewBox="0 0 37.5 37.499999" version="1.2">
<defs>
<clipPath id="clip1">
  <path d="M 0 0 L 37.007812 0 L 37.007812 37.007812 L 0 37.007812 Z M 0 0 "/>
</clipPath>
</defs>
<g id="surface1">
<g clip-path="url(#clip1)" clip-rule="nonzero">
<path style=" stroke:none;fill-rule:nonzero;fill:rgb(0%,0%,0%);fill-opacity:1;" d="M 7.503906 -0.0273438 C 3.367188 -0.0273438 0.00390625 3.339844 0.00390625 7.472656 L 0.00390625 29.972656 C 0.00390625 34.109375 3.367188 37.472656 7.503906 37.472656 L 30.003906 37.472656 C 34.140625 37.472656 37.503906 34.109375 37.503906 29.972656 L 37.503906 7.472656 C 37.503906 3.335938 34.140625 -0.0273438 30.003906 -0.0273438 Z M 7.503906 1.128906 L 30.003906 1.128906 C 33.503906 1.128906 36.351562 3.972656 36.351562 7.472656 L 36.351562 29.972656 C 36.351562 33.472656 33.503906 36.320312 30.003906 36.320312 L 7.503906 36.320312 C 4.003906 36.320312 1.15625 33.472656 1.15625 29.972656 L 1.15625 7.472656 C 1.15625 3.972656 4.003906 1.128906 7.503906 1.128906 Z M 9.140625 2.855469 C 5.695312 2.855469 2.886719 5.660156 2.886719 9.109375 L 2.886719 28.335938 C 2.886719 31.785156 5.695312 34.585938 9.140625 34.585938 L 28.367188 34.585938 C 31.816406 34.585938 34.621094 31.785156 34.621094 28.335938 L 34.621094 17.570312 C 34.621094 17.410156 34.488281 17.28125 34.332031 17.28125 C 34.171875 17.28125 34.042969 17.410156 34.042969 17.570312 L 34.042969 28.335938 C 34.042969 31.464844 31.496094 34.011719 28.367188 34.011719 L 9.140625 34.011719 C 6.011719 34.011719 3.464844 31.464844 3.464844 28.335938 L 3.464844 9.109375 C 3.464844 5.980469 6.011719 3.433594 9.140625 3.433594 L 28.5625 3.433594 C 28.722656 3.433594 28.851562 3.304688 28.851562 3.144531 C 28.851562 2.988281 28.722656 2.855469 28.5625 2.855469 Z M 12.417969 10.382812 C 11.214844 10.382812 10.339844 11.226562 10.339844 12.390625 C 10.339844 13.550781 11.195312 14.394531 12.394531 14.394531 C 13.601562 14.394531 14.476562 13.550781 14.476562 12.382812 C 14.445312 11.203125 13.597656 10.382812 12.417969 10.382812 Z M 12.417969 10.957031 C 13.296875 10.957031 13.878906 11.523438 13.898438 12.390625 C 13.898438 13.230469 13.28125 13.820312 12.378906 13.820312 C 11.519531 13.820312 10.917969 13.230469 10.917969 12.390625 C 10.917969 11.546875 11.535156 10.957031 12.417969 10.957031 Z M 34.332031 11.511719 C 34.171875 11.511719 34.042969 11.640625 34.042969 11.800781 L 34.042969 12.953125 C 34.042969 13.113281 34.171875 13.242188 34.332031 13.242188 C 34.488281 13.242188 34.621094 13.113281 34.621094 12.953125 L 34.621094 11.800781 C 34.621094 11.640625 34.488281 11.511719 34.332031 11.511719 Z M 34.332031 13.820312 C 34.171875 13.820312 34.042969 13.949219 34.042969 14.109375 L 34.042969 16.414062 C 34.042969 16.574219 34.171875 16.703125 34.332031 16.703125 C 34.488281 16.703125 34.621094 16.574219 34.621094 16.414062 L 34.621094 14.109375 C 34.621094 13.949219 34.488281 13.820312 34.332031 13.820312 Z M 23.234375 15.480469 C 21.96875 15.488281 20.9375 15.867188 20.195312 16.664062 L 20.195312 15.835938 C 20.195312 15.679688 20.066406 15.550781 19.90625 15.550781 L 16.402344 15.550781 C 16.324219 15.550781 16.246094 15.582031 16.191406 15.636719 C 16.136719 15.695312 16.109375 15.773438 16.113281 15.851562 C 16.160156 16.859375 16.113281 26.699219 16.113281 26.796875 C 16.113281 26.875 16.144531 26.949219 16.195312 27.003906 C 16.25 27.058594 16.324219 27.085938 16.402344 27.085938 L 19.90625 27.085938 C 20.066406 27.085938 20.195312 26.957031 20.195312 26.800781 L 20.195312 20.675781 C 20.195312 20.324219 20.230469 20.0625 20.296875 19.894531 C 20.4375 19.550781 20.875 18.742188 21.902344 18.742188 C 23.441406 18.742188 23.609375 20.304688 23.609375 20.980469 L 23.65625 26.800781 C 23.65625 26.960938 23.785156 27.085938 23.945312 27.085938 L 27.40625 27.085938 C 27.566406 27.085938 27.695312 26.957031 27.695312 26.800781 L 27.695312 20.925781 C 27.695312 19.007812 27.222656 17.558594 26.285156 16.625 C 25.523438 15.863281 24.5 15.480469 23.234375 15.480469 Z M 10.675781 15.550781 C 10.519531 15.550781 10.386719 15.679688 10.386719 15.839844 L 10.386719 26.800781 C 10.386719 26.960938 10.519531 27.089844 10.675781 27.089844 L 14.136719 27.089844 C 14.296875 27.089844 14.425781 26.960938 14.425781 26.800781 L 14.425781 15.839844 C 14.425781 15.679688 14.296875 15.550781 14.136719 15.550781 Z M 23.226562 16.058594 L 23.234375 16.058594 C 24.339844 16.058594 25.230469 16.386719 25.878906 17.035156 C 26.703125 17.855469 27.121094 19.164062 27.121094 20.925781 L 27.121094 26.511719 L 24.230469 26.511719 L 24.1875 20.976562 C 24.1875 19.246094 23.3125 18.167969 21.90625 18.167969 C 20.945312 18.167969 20.144531 18.730469 19.761719 19.679688 C 19.667969 19.914062 19.621094 20.242188 19.621094 20.675781 L 19.621094 26.511719 L 16.691406 26.511719 C 16.699219 24.957031 16.726562 17.875 16.699219 16.128906 L 19.621094 16.128906 L 19.621094 17.457031 C 19.585938 17.539062 19.601562 17.632812 19.644531 17.710938 C 19.695312 17.800781 19.804688 17.859375 19.90625 17.859375 C 20.027344 17.859375 20.128906 17.761719 20.171875 17.648438 C 20.59375 16.957031 21.371094 16.058594 23.226562 16.058594 Z M 10.964844 16.128906 L 13.851562 16.128906 L 13.851562 26.511719 L 10.964844 26.511719 Z M 10.964844 16.128906 "/>
</g>
</g>
</svg>
