<?xml version="1.0" encoding="UTF-8"?>
<svg xmlns="http://www.w3.org/2000/svg" xmlns:xlink="http://www.w3.org/1999/xlink" width="37.5pt" height="37.499999pt" viewBox="0 0 37.5 37.499999" version="1.2">
<defs>
<clipPath id="clip1">
  <path d="M 0 0.28125 L 37.007812 0.28125 L 37.007812 36.84375 L 0 36.84375 Z M 0 0.28125 "/>
</clipPath>
</defs>
<g id="surface1">
<g clip-path="url(#clip1)" clip-rule="nonzero">
<path style=" stroke:none;fill-rule:nonzero;fill:rgb(0%,0%,0%);fill-opacity:1;" d="M 7.050781 0.285156 C 6.242188 0.285156 5.433594 0.589844 4.816406 1.199219 C 4.285156 1.722656 3.679688 2.332031 3.214844 2.800781 C 2.664062 3.359375 2.246094 4.03125 1.992188 4.773438 C 1.992188 4.773438 1.578125 5.972656 1.160156 7.179688 C 0.953125 7.785156 0.742188 8.390625 0.582031 8.847656 C 0.425781 9.304688 0.335938 9.5625 0.3125 9.632812 C 0.164062 10.066406 0.164062 10.539062 0.316406 10.976562 C 1.699219 14.929688 5.410156 21.167969 10.699219 26.402344 C 10.710938 26.417969 10.722656 26.429688 10.738281 26.4375 C 16.015625 31.652344 22.296875 35.3125 26.28125 36.679688 C 26.722656 36.832031 27.203125 36.828125 27.636719 36.683594 C 27.710938 36.660156 27.96875 36.570312 28.433594 36.414062 C 28.894531 36.257812 29.507812 36.050781 30.117188 35.84375 C 31.335938 35.429688 32.550781 35.019531 32.550781 35.019531 C 33.296875 34.769531 33.976562 34.355469 34.539062 33.808594 C 35.015625 33.347656 35.628906 32.75 36.160156 32.222656 C 37.390625 31.007812 37.390625 29.015625 36.160156 27.800781 L 31.417969 23.105469 C 30.1875 21.886719 28.175781 21.886719 26.949219 23.105469 C 26.324219 23.71875 24.058594 25.980469 22.234375 27.796875 C 19.535156 26.421875 16.640625 24.863281 14.449219 22.691406 C 12.253906 20.519531 10.679688 17.65625 9.292969 14.984375 C 11.125 13.179688 13.40625 10.933594 14.03125 10.316406 C 15.261719 9.101562 15.261719 7.109375 14.03125 5.890625 L 9.289062 1.199219 C 8.671875 0.589844 7.863281 0.285156 7.050781 0.285156 Z M 7.050781 1.320312 C 7.589844 1.320312 8.128906 1.527344 8.542969 1.9375 L 13.285156 6.628906 C 14.113281 7.449219 14.113281 8.761719 13.285156 9.582031 C 13.242188 9.625 13.003906 9.855469 12.941406 9.917969 L 9.082031 6.09375 C 9.03125 6.042969 8.96875 6.015625 8.894531 6.015625 C 8.773438 6.015625 8.695312 6.070312 8.648438 6.179688 C 8.605469 6.289062 8.625 6.382812 8.710938 6.464844 L 12.570312 10.285156 C 11.605469 11.234375 9.882812 12.929688 8.269531 14.519531 C 8.085938 14.699219 8.054688 14.902344 8.167969 15.128906 C 9.601562 17.902344 11.269531 21.019531 13.703125 23.429688 C 16.136719 25.839844 19.289062 27.488281 22.089844 28.90625 C 22.316406 29.019531 22.519531 28.988281 22.703125 28.808594 C 24.574219 26.941406 27.039062 24.488281 27.691406 23.84375 C 28.519531 23.023438 29.847656 23.023438 30.671875 23.84375 L 35.414062 28.535156 C 36.242188 29.355469 36.242188 30.667969 35.414062 31.488281 C 35.304688 31.597656 35.191406 31.707031 35.074219 31.820312 L 31.214844 28 C 31.160156 27.949219 31.097656 27.921875 31.023438 27.921875 C 30.90625 27.921875 30.824219 27.976562 30.78125 28.085938 C 30.734375 28.195312 30.757812 28.289062 30.839844 28.371094 L 34.699219 32.1875 C 34.386719 32.492188 34.066406 32.808594 33.804688 33.0625 C 33.804688 33.0625 33.804688 33.066406 33.804688 33.066406 C 33.351562 33.5 32.808594 33.832031 32.210938 34.03125 C 32.210938 34.03125 30.996094 34.445312 29.777344 34.859375 C 29.164062 35.066406 28.554688 35.273438 28.089844 35.429688 C 27.628906 35.585938 27.261719 35.707031 27.304688 35.695312 C 27.082031 35.769531 26.847656 35.769531 26.628906 35.691406 C 26.628906 35.691406 26.628906 35.691406 26.625 35.691406 C 22.863281 34.402344 16.605469 30.777344 11.441406 25.664062 C 6.277344 20.554688 2.617188 14.359375 1.3125 10.636719 C 1.238281 10.417969 1.238281 10.183594 1.3125 9.964844 C 1.296875 10.007812 1.421875 9.644531 1.582031 9.1875 C 1.738281 8.726562 1.949219 8.121094 2.15625 7.519531 C 2.574219 6.308594 2.988281 5.109375 2.988281 5.109375 C 3.195312 4.515625 3.527344 3.976562 3.96875 3.53125 C 4.433594 3.0625 5.035156 2.457031 5.5625 1.9375 C 5.976562 1.527344 6.515625 1.320312 7.050781 1.320312 Z M 6.785156 3.929688 C 6.667969 3.929688 6.585938 3.984375 6.542969 4.09375 C 6.496094 4.199219 6.515625 4.296875 6.601562 4.378906 L 7.65625 5.421875 C 7.707031 5.472656 7.769531 5.5 7.84375 5.5 C 7.917969 5.5 7.980469 5.476562 8.03125 5.425781 C 8.085938 5.371094 8.109375 5.308594 8.109375 5.238281 C 8.109375 5.164062 8.082031 5.101562 8.027344 5.050781 L 6.976562 4.007812 C 6.921875 3.957031 6.859375 3.929688 6.785156 3.929688 Z M 28.917969 25.835938 C 28.796875 25.835938 28.714844 25.890625 28.671875 26 C 28.628906 26.109375 28.648438 26.203125 28.734375 26.285156 L 29.789062 27.328125 C 29.839844 27.378906 29.902344 27.40625 29.976562 27.40625 C 30.046875 27.410156 30.113281 27.382812 30.164062 27.332031 C 30.214844 27.28125 30.242188 27.21875 30.242188 27.144531 C 30.238281 27.070312 30.214844 27.007812 30.160156 26.957031 L 29.105469 25.914062 C 29.054688 25.863281 28.992188 25.835938 28.917969 25.835938 Z M 28.917969 25.835938 "/>
</g>
</g>
</svg>
