<?xml version="1.0" standalone="no"?>
<!DOCTYPE svg PUBLIC "-//W3C//DTD SVG 20010904//EN"
 "http://www.w3.org/TR/2001/REC-SVG-20010904/DTD/svg10.dtd">
<svg version="1.0" xmlns="http://www.w3.org/2000/svg"
 width="1280.000000pt" height="1280.000000pt" viewBox="0 0 1280.000000 1280.000000"
 preserveAspectRatio="xMidYMid meet">
<metadata>
Created by potrace 1.16, written by Peter Selinger 2001-2019
</metadata>
<g transform="translate(0.000000,1280.000000) scale(0.100000,-0.100000)"
fill="#000000" stroke="none">
<path d="M5941 12790 c-1316 -102 -2539 -583 -3550 -1398 -1270 -1023 -2097
-2470 -2330 -4077 -50 -341 -55 -438 -55 -915 0 -477 5 -574 55 -915 84 -583
256 -1176 494 -1705 908 -2022 2819 -3445 5006 -3729 321 -42 396 -46 844 -46
472 0 591 8 950 61 1583 235 3032 1072 4044 2334 716 893 1175 1950 1340 3085
50 341 55 438 55 915 0 477 -5 574 -55 915 -84 582 -257 1177 -494 1705 -802
1787 -2405 3128 -4295 3594 -319 79 -568 122 -930 162 -169 19 -894 28 -1079
14z m859 -651 c883 -56 1771 -335 2546 -800 1282 -769 2216 -2000 2608 -3434
93 -343 158 -722 186 -1094 13 -174 13 -648 0 -822 -59 -774 -255 -1483 -601
-2170 -693 -1377 -1915 -2424 -3380 -2897 -583 -189 -1130 -273 -1764 -273
-924 1 -1765 201 -2585 617 -1543 781 -2658 2215 -3029 3894 -93 420 -131 781
-131 1240 0 375 19 617 76 955 228 1361 952 2608 2024 3488 781 640 1720 1070
2695 1231 468 77 866 96 1355 65z"/>
<path d="M6287 8445 c-21 -8 -60 -30 -85 -49 -26 -19 -691 -680 -1478 -1468
-1157 -1159 -1436 -1443 -1455 -1483 -20 -42 -24 -66 -24 -145 0 -84 3 -101
27 -145 32 -60 87 -115 148 -146 68 -34 186 -38 265 -9 58 22 100 62 1388
1349 l1327 1326 1328 -1326 c1287 -1287 1329 -1327 1387 -1349 82 -30 198 -25
270 12 60 31 114 86 146 148 20 38 24 60 24 140 0 79 -4 103 -24 145 -19 41
-299 325 -1480 1506 -1182 1183 -1465 1461 -1506 1480 -62 30 -198 37 -258 14z"/>
</g>
</svg>
