<?xml version="1.0" encoding="UTF-8"?>
<svg xmlns="http://www.w3.org/2000/svg" xmlns:xlink="http://www.w3.org/1999/xlink" width="37.5pt" height="37.499999pt" viewBox="0 0 37.5 37.499999" version="1.2">
<defs>
<clipPath id="clip1">
  <path d="M 2.101562 1.714844 L 35.101562 1.714844 L 35.101562 35.464844 L 2.101562 35.464844 Z M 2.101562 1.714844 "/>
</clipPath>
</defs>
<g id="surface1">
<g clip-path="url(#clip1)" clip-rule="nonzero">
<path style=" stroke:none;fill-rule:nonzero;fill:rgb(0%,0%,0%);fill-opacity:1;" d="M 30.867188 14.386719 C 30.988281 14.511719 31.027344 14.675781 31.027344 14.839844 C 31.027344 15 30.988281 15.164062 30.867188 15.289062 L 28.8125 17.339844 C 28.6875 17.464844 28.566406 17.503906 28.402344 17.503906 L 28.363281 17.503906 C 28.320312 17.503906 28.320312 17.503906 28.277344 17.503906 C 28.15625 17.503906 28.035156 17.421875 27.953125 17.339844 L 27.910156 17.300781 L 25.859375 15.25 C 25.613281 15 25.613281 14.632812 25.859375 14.386719 C 26.105469 14.140625 26.476562 14.140625 26.722656 14.386719 L 27.703125 15.371094 L 27.703125 10.695312 C 27.703125 10.367188 27.992188 10.082031 28.320312 10.082031 C 28.648438 10.082031 28.976562 10.367188 28.976562 10.695312 L 28.976562 15.371094 L 29.960938 14.386719 C 30.25 14.140625 30.617188 14.140625 30.867188 14.386719 Z M 28.363281 19.308594 C 25.328125 19.308594 22.824219 16.808594 22.824219 13.773438 C 22.824219 10.738281 25.328125 8.238281 28.363281 8.238281 C 31.398438 8.238281 33.902344 10.738281 33.902344 13.773438 C 33.902344 16.808594 31.441406 19.308594 28.363281 19.308594 Z M 28.363281 7.003906 C 24.628906 7.003906 21.589844 10.039062 21.589844 13.773438 C 21.589844 17.503906 24.628906 20.539062 28.363281 20.539062 C 32.09375 20.539062 35.132812 17.503906 35.132812 13.773438 C 35.132812 10.039062 32.09375 7.003906 28.363281 7.003906 Z M 21.015625 32.558594 L 21.015625 28.371094 C 21.015625 27.675781 21.550781 27.140625 22.25 27.140625 L 26.390625 27.140625 Z M 27.539062 21.523438 L 27.539062 25.460938 L 22.25 25.460938 C 20.6875 25.460938 19.375 26.773438 19.375 28.335938 L 19.375 33.746094 L 6.984375 33.746094 C 5.175781 33.746094 3.742188 32.269531 3.742188 30.421875 L 3.742188 6.71875 C 3.742188 4.914062 5.21875 3.398438 6.984375 3.398438 L 24.296875 3.398438 C 25.859375 3.398438 27.171875 4.542969 27.5 6.0625 C 27.789062 6.019531 28.113281 6.019531 28.402344 6.019531 C 28.648438 6.019531 28.894531 6.019531 29.140625 6.0625 C 28.8125 3.640625 26.761719 1.753906 24.257812 1.753906 L 6.984375 1.753906 C 4.273438 1.753906 2.101562 3.96875 2.101562 6.71875 L 2.101562 30.464844 C 2.101562 33.210938 4.273438 35.429688 6.984375 35.429688 L 20.199219 35.429688 C 20.238281 35.429688 20.320312 35.429688 20.359375 35.429688 C 20.402344 35.429688 20.402344 35.429688 20.441406 35.386719 C 20.484375 35.386719 20.484375 35.386719 20.523438 35.34375 C 20.566406 35.34375 20.566406 35.304688 20.605469 35.304688 C 20.605469 35.304688 20.644531 35.304688 20.644531 35.261719 C 20.6875 35.226562 20.730469 35.179688 20.773438 35.140625 L 28.894531 26.894531 C 28.894531 26.894531 28.894531 26.855469 28.9375 26.855469 C 28.976562 26.816406 28.976562 26.816406 29.019531 26.773438 C 29.019531 26.730469 29.058594 26.730469 29.058594 26.691406 C 29.058594 26.652344 29.101562 26.652344 29.101562 26.609375 C 29.101562 26.566406 29.101562 26.566406 29.140625 26.527344 C 29.140625 26.488281 29.140625 26.488281 29.140625 26.445312 C 29.140625 26.40625 29.140625 26.320312 29.140625 26.28125 L 29.140625 21.523438 C 28.894531 21.566406 28.609375 21.566406 28.363281 21.566406 C 28.074219 21.566406 27.789062 21.566406 27.539062 21.523438 Z M 13.382812 21.609375 L 13.425781 21.523438 C 13.671875 20.867188 13.671875 20.867188 13.835938 20.457031 C 13.917969 20.171875 14.125 19.597656 14.574219 18.285156 C 14.777344 17.75 14.902344 17.257812 15.027344 16.847656 C 15.640625 17.917969 16.132812 18.734375 16.871094 19.761719 C 17.160156 20.132812 17.367188 20.457031 17.609375 20.742188 C 17.488281 20.785156 17.367188 20.828125 17.242188 20.867188 C 16.957031 20.992188 16.625 21.074219 16.175781 21.238281 L 15.601562 21.441406 C 14.574219 21.769531 14 21.976562 13.054688 22.34375 C 13.179688 22.097656 13.261719 21.851562 13.382812 21.609375 Z M 14.328125 9.714844 C 14.367188 9.585938 14.410156 9.464844 14.453125 9.425781 C 14.492188 9.464844 14.492188 9.546875 14.53125 9.671875 C 14.699219 10.574219 14.699219 10.859375 14.453125 12.050781 C 14.410156 11.925781 14.367188 11.804688 14.367188 11.722656 C 14.164062 10.820312 14.125 10.367188 14.328125 9.714844 Z M 21.261719 21.6875 C 21.671875 21.6875 22.085938 21.6875 22.660156 21.8125 C 23.070312 21.894531 23.191406 22.058594 23.191406 22.097656 C 23.191406 22.183594 23.191406 22.347656 23.191406 22.386719 C 23.191406 22.386719 23.148438 22.425781 22.945312 22.46875 C 22.660156 22.550781 22.25 22.550781 22.125 22.507812 C 21.921875 22.425781 21.589844 22.304688 20.894531 21.730469 C 21.015625 21.6875 21.140625 21.6875 21.261719 21.6875 Z M 9.238281 26.199219 C 9.074219 26.488281 8.953125 26.773438 8.828125 26.980469 C 8.417969 27.757812 8.335938 27.921875 8.089844 28.167969 C 7.925781 28.292969 7.722656 28.210938 7.597656 28.128906 C 7.558594 28.085938 7.4375 28.003906 7.722656 27.265625 C 7.882812 26.855469 8.664062 26.363281 9.363281 25.914062 C 9.363281 26.035156 9.28125 26.117188 9.238281 26.199219 Z M 12.234375 19.964844 C 12.113281 20.335938 12.113281 20.335938 11.863281 20.949219 L 11.828125 21.035156 C 11.539062 21.8125 11.046875 22.757812 10.714844 23.367188 C 10.222656 23.617188 9.734375 23.863281 9.035156 24.273438 C 7.558594 25.132812 6.53125 25.75 6.160156 26.734375 C 5.957031 27.265625 5.464844 28.578125 6.53125 29.441406 C 6.898438 29.769531 7.394531 29.933594 7.84375 29.933594 C 8.335938 29.933594 8.789062 29.769531 9.160156 29.441406 C 9.652344 28.988281 9.855469 28.578125 10.265625 27.800781 C 10.386719 27.597656 10.511719 27.347656 10.675781 27.023438 C 11.332031 25.75 11.742188 24.886719 11.828125 24.765625 C 11.828125 24.722656 11.863281 24.683594 11.90625 24.640625 C 12.195312 24.519531 12.523438 24.398438 12.890625 24.230469 C 14.246094 23.65625 14.820312 23.496094 16.050781 23.082031 L 16.625 22.878906 C 17.078125 22.714844 17.402344 22.632812 17.734375 22.507812 C 18.144531 22.347656 18.472656 22.261719 18.800781 22.140625 C 19.089844 22.386719 19.375 22.671875 19.742188 22.960938 C 20.523438 23.617188 21.058594 23.941406 21.632812 24.109375 C 22.125 24.230469 22.824219 24.191406 23.273438 24.066406 C 24.710938 23.699219 24.75 22.632812 24.792969 22.183594 C 24.832031 21.566406 24.460938 20.5 22.863281 20.210938 C 22.125 20.089844 21.632812 20.089844 21.179688 20.089844 C 20.730469 20.089844 20.359375 20.132812 19.785156 20.210938 C 19.621094 20.253906 19.417969 20.292969 19.292969 20.292969 C 18.882812 19.886719 18.59375 19.472656 18.144531 18.859375 C 17.28125 17.628906 16.75 16.769531 15.886719 15.25 C 15.765625 15.042969 15.640625 14.796875 15.515625 14.59375 C 15.601562 14.222656 15.679688 13.816406 15.765625 13.320312 L 15.886719 12.746094 C 16.21875 11.191406 16.296875 10.65625 16.050781 9.382812 C 15.765625 7.992188 14.820312 7.664062 14.328125 7.703125 C 14.082031 7.703125 13.097656 7.867188 12.6875 9.304688 C 12.402344 10.289062 12.4375 11.027344 12.6875 12.050781 C 12.851562 12.789062 13.21875 13.691406 13.835938 14.796875 C 13.628906 15.660156 13.382812 16.4375 12.933594 17.75 C 12.523438 19.101562 12.316406 19.636719 12.234375 19.964844 "/>
</g>
</g>
</svg>
