<?xml version="1.0" encoding="UTF-8"?>
<svg xmlns="http://www.w3.org/2000/svg" xmlns:xlink="http://www.w3.org/1999/xlink" width="37.5pt" height="37.499999pt" viewBox="0 0 37.5 37.499999" version="1.2">
<defs>
<clipPath id="clip1">
  <path d="M 4 2.402344 L 33.75 2.402344 L 33.75 17 L 4 17 Z M 4 2.402344 "/>
</clipPath>
<clipPath id="clip2">
  <path d="M 4 20 L 33.75 20 L 33.75 35.402344 L 4 35.402344 Z M 4 20 "/>
</clipPath>
</defs>
<g id="surface1">
<g clip-path="url(#clip1)" clip-rule="nonzero">
<path style=" stroke:none;fill-rule:nonzero;fill:rgb(0%,0%,0%);fill-opacity:1;" d="M 5.15625 16.949219 C 5.417969 16.949219 5.683594 16.855469 5.898438 16.667969 L 18.859375 5.160156 L 31.652344 16.664062 C 32.113281 17.082031 32.824219 17.039062 33.238281 16.570312 C 33.652344 16.105469 33.609375 15.386719 33.144531 14.972656 L 19.609375 2.796875 C 19.1875 2.417969 18.550781 2.414062 18.121094 2.792969 L 4.414062 14.96875 C 3.949219 15.378906 3.902344 16.09375 4.3125 16.566406 C 4.535156 16.820312 4.84375 16.949219 5.15625 16.949219 Z M 5.15625 16.949219 "/>
</g>
<g clip-path="url(#clip2)" clip-rule="nonzero">
<path style=" stroke:none;fill-rule:nonzero;fill:rgb(0%,0%,0%);fill-opacity:1;" d="M 19.609375 21.140625 C 19.1875 20.757812 18.550781 20.757812 18.121094 21.136719 L 4.414062 33.308594 C 3.949219 33.722656 3.902344 34.4375 4.3125 34.910156 C 4.535156 35.164062 4.84375 35.292969 5.15625 35.292969 C 5.417969 35.292969 5.683594 35.199219 5.898438 35.007812 L 18.859375 23.5 L 31.652344 35.003906 C 32.113281 35.421875 32.824219 35.382812 33.238281 34.914062 C 33.652344 34.445312 33.609375 33.730469 33.144531 33.3125 Z M 19.609375 21.140625 "/>
</g>
</g>
</svg>
