<?xml version="1.0" encoding="UTF-8"?>
<svg xmlns="http://www.w3.org/2000/svg" xmlns:xlink="http://www.w3.org/1999/xlink" width="37.5pt" height="37.499999pt" viewBox="0 0 37.5 37.499999" version="1.2">
<defs>
<clipPath id="clip1">
  <path d="M 4 20 L 33.75 20 L 33.75 35 L 4 35 Z M 4 20 "/>
</clipPath>
<clipPath id="clip2">
  <path d="M 4 2.402344 L 33.75 2.402344 L 33.75 17 L 4 17 Z M 4 2.402344 "/>
</clipPath>
</defs>
<g id="surface1">
<g clip-path="url(#clip1)" clip-rule="nonzero">
<path style=" stroke:none;fill-rule:nonzero;fill:rgb(0%,0%,0%);fill-opacity:1;" d="M 5.15625 20.546875 C 5.417969 20.546875 5.683594 20.640625 5.898438 20.832031 L 18.859375 32.339844 L 31.652344 20.835938 C 32.113281 20.417969 32.824219 20.460938 33.238281 20.925781 C 33.652344 21.394531 33.609375 22.109375 33.144531 22.527344 L 19.609375 34.699219 C 19.1875 35.082031 18.550781 35.085938 18.121094 34.703125 L 4.414062 22.53125 C 3.949219 22.117188 3.902344 21.402344 4.3125 20.933594 C 4.535156 20.679688 4.84375 20.546875 5.15625 20.546875 Z M 5.15625 20.546875 "/>
</g>
<g clip-path="url(#clip2)" clip-rule="nonzero">
<path style=" stroke:none;fill-rule:nonzero;fill:rgb(0%,0%,0%);fill-opacity:1;" d="M 19.609375 16.359375 C 19.1875 16.738281 18.550781 16.742188 18.121094 16.363281 L 4.414062 4.191406 C 3.949219 3.777344 3.902344 3.0625 4.3125 2.589844 C 4.535156 2.335938 4.84375 2.207031 5.15625 2.207031 C 5.417969 2.207031 5.683594 2.296875 5.898438 2.488281 L 18.859375 14 L 31.652344 2.492188 C 32.113281 2.078125 32.824219 2.117188 33.238281 2.585938 C 33.652344 3.050781 33.609375 3.769531 33.144531 4.1875 Z M 19.609375 16.359375 "/>
</g>
</g>
</svg>
